<?xml version="1.0" standalone="no"?><!DOCTYPE svg PUBLIC "-//W3C//DTD SVG 1.1//EN" "http://www.w3.org/Graphics/SVG/1.1/DTD/svg11.dtd"><svg t="1734614632161" class="icon" viewBox="0 0 1024 1024" version="1.1" xmlns="http://www.w3.org/2000/svg" p-id="5344" width="320" height="320" xmlns:xlink="http://www.w3.org/1999/xlink"><path d="M0 0m512 0l0 0q512 0 512 512l0 0q0 512-512 512l0 0q-512 0-512-512l0 0q0-512 512-512Z" fill="#0066ff" p-id="5345" data-spm-anchor-id="a313x.search_index.0.i2.55e43a81Blp0V3" class=""></path><path d="M512 21.333333a490.794667 490.794667 0 0 0-190.976 942.784 490.794667 490.794667 0 0 0 381.866667-904.234666 487.573333 487.573333 0 0 0-190.890667-38.549334m0-21.333333a512 512 0 1 1-512 512 512 512 0 0 1 512-512z" fill="#FFFFFF" p-id="5346"></path><path d="M774.954667 650.026667l-1.685334 3.242666-0.512 0.981334-1.194666 2.133333-0.661334 1.194667-1.088 1.962666-0.725333 1.28-1.066667 1.877334-0.768 1.301333-1.066666 1.813333-0.789334 1.322667-1.088 1.792-0.810666 1.301333-1.130667 1.792-0.810667 1.28-1.173333 1.813334-0.832 1.237333-1.237333 1.856-0.768 1.152-1.365334 2.005333-0.682666 0.981334-1.664 2.368-0.405334 0.576-4.266666 5.888-0.533334 0.704-1.664 2.133333-0.704 0.896-1.536 1.962667-0.768 0.981333-1.493333 1.856-0.810667 1.002667-1.493333 1.813333-0.832 1.002667-1.514667 1.792-0.832 0.96-1.578666 1.813333-0.789334 0.917333-1.664 1.877334-0.746666 0.832-1.813334 1.984-0.618666 0.682666-2.133334 2.261334-0.341333 0.362666q-3.818667 4.010667-7.786667 7.872l-0.213333 0.192-2.410667 2.474667-0.469333 0.448-2.133333 2.133333-0.597334 0.554667-2.133333 1.92-0.64 0.576-2.133333 1.856-0.661334 0.576-2.133333 1.834667-0.64 0.533333-2.133333 1.877333-0.554667 0.469334-2.389333 1.962666-0.448 0.192-2.709334 2.133334h-0.128q-7.317333 5.781333-14.933333 11.072l-2.944 2.005333-0.256 0.170667-2.816 1.856-0.341333 0.213333-2.794667 1.792-0.341333 0.213333-2.837334 1.770667-0.298666 0.192-2.986667 1.813333h-0.170667a285.994667 285.994667 0 0 1-30.016 15.573334l-3.392 1.493333a284.970667 284.970667 0 0 1-39.616 13.674667 288.810667 288.810667 0 0 1-147.2 0 286.378667 286.378667 0 0 1-125.461333-70.762667L317.952 723.52l-2.517333-2.517333a288 288 0 0 1-41.941334-54.08l-1.813333-3.072-1.792-3.093334-1.770667-3.157333a286.848 286.848 0 1 1 507.050667-7.381333zM519.488 266.346667a253.248 253.248 0 0 0-237.269333 341.333333c35.541333 46.442667 108.394667 80.064 194.133333 84.821333a171.370667 171.370667 0 0 0 19.84 1.152q7.210667 0 14.250667-0.597333h2.837333A136.682667 136.682667 0 0 0 606.634667 456.618667a84.437333 84.437333 0 0 0-15.616-13.290667 82.005333 82.005333 0 0 0-10.261334-5.76l-0.96-0.554667v0.106667a52.416 52.416 0 0 0-69.994666 16.064 56.981333 56.981333 0 0 0 4.010666 56.192h-1.344a67.498667 67.498667 0 0 1-49.813333-113.066667v-0.234666l1.365333-1.173334a67.754667 67.754667 0 0 1 14.016-11.072 177.578667 177.578667 0 0 1 103.36-33.024h7.552a184.341333 184.341333 0 0 1 183.637334 168.362667A253.098667 253.098667 0 0 0 519.488 266.346667z" fill="#FFFFFF" p-id="5347"></path></svg>